# xmcd
#
# Track frame offsets: 
#        150
#        13895
#        28011
#        45012
#        60651
#        75419
#        93215
#        106100
#        121882
#        136336
#        152594
#        165272
#        178240
#        192058
#        207715
#        222630
#        235214
#        246430
#        264793
#
# Disc length: 3806 seconds
#
# Revision: 0
# Processed by: cddbd v1.5.2PL0 Copyright (c) Steve Scherf et al.
# Submitted via: ExactAudioCopy v1.1
#
DISCID=f50edc13
DTITLE=Various Artist - MNM Big Hits 2019 Vol. 3 - CD 2
DYEAR=2019
DGENRE=Top 40
TTITLE0=Duncan Laurence - Arcade
TTITLE1=Angèle - Balance Ton Quoi
TTITLE2=The Chainsmokers Feat. 5 Seconds Of Summer - Who Do You Love
TTITLE3=Niels Destadsbader - Mee Naar Boven
TTITLE4=Mathieu Koss and Aloe Blacc - Never Growing Up
TTITLE5=Pedro Capó X Farruko - Calma (Remix)
TTITLE6=Dimitri Vegas and Like Mike Feat. Paris Hilton - Best Friend's A
TTITLE6=ss
TTITLE7=Lea Rue - Watching You (Gaillard Remix)
TTITLE8=Lost Frequencies Feat. Aloe Blacc - Truth Never Lies
TTITLE9=Jonas Blue Feat. Theresa Rex - What I Like About You
TTITLE10=Panic! At The Disco - Hey Look Ma, I Made It
TTITLE11=Lennert Wolfs Feat. Neenah and Danielz - Papi Dime
TTITLE12=Daniël Busser and Snelle - Adrenaline
TTITLE13=Warhola Feat. Glints and Tessa Dixson - Look At Me
TTITLE14=Milo Meskens - Memory Card
TTITLE15=Lester Williams and Hunter Falls - SSID (Gaillard Edit)
TTITLE16=Bebe Rexha - Last Hurrah
TTITLE17=Tourist LeMC Feat. Alice On The Roof - Oprechte Leugens
TTITLE18=Lauren Daigle - You Say
EXTD=
EXTT0=
EXTT1=
EXTT2=
EXTT3=
EXTT4=
EXTT5=
EXTT6=
EXTT7=
EXTT8=
EXTT9=
EXTT10=
EXTT11=
EXTT12=
EXTT13=
EXTT14=
EXTT15=
EXTT16=
EXTT17=
EXTT18=
PLAYORDER=
